<?xml version="1.0" standalone="no"?>
<!DOCTYPE svg PUBLIC "-//W3C//DTD SVG 20010904//EN"
 "http://www.w3.org/TR/2001/REC-SVG-20010904/DTD/svg10.dtd">
<svg version="1.0" xmlns="http://www.w3.org/2000/svg"
 width="260.000000pt" height="260.000000pt" viewBox="0 0 260.000000 260.000000"
 preserveAspectRatio="xMidYMid meet">
<metadata>
Created by potrace 1.14, written by Peter Selinger 2001-2017
</metadata>
<g transform="translate(0.000000,260.000000) scale(0.100000,-0.100000)"
fill="#000000" stroke="none">
<path d="M2265 2550 c3 -5 8 -10 11 -10 2 0 4 5 4 10 0 6 -5 10 -11 10 -5 0
-7 -4 -4 -10z"/>
<path d="M2420 2421 c0 -6 4 -13 10 -16 6 -3 7 1 4 9 -7 18 -14 21 -14 7z"/>
<path d="M2250 2395 c0 -8 4 -15 10 -15 5 0 7 7 4 15 -4 8 -8 15 -10 15 -2 0
-4 -7 -4 -15z"/>
<path d="M1943 2273 c-4 -10 -8 -114 -8 -230 0 -117 -4 -213 -8 -213 -4 0 -2
-10 4 -22 11 -21 11 -22 -4 -9 -21 16 -22 8 -3 -22 12 -19 13 -37 7 -95 0 -7
-7 -10 -13 -7 -7 4 -6 1 3 -7 13 -11 15 -69 13 -488 -2 -261 -4 -496 -6 -523
-2 -26 -1 -47 2 -47 3 0 5 -82 5 -183 -1 -100 3 -190 7 -199 7 -15 22 -18 83
-18 62 0 74 -3 78 -17 4 -17 5 -17 6 0 1 19 31 24 31 5 0 -9 3 -9 12 0 7 7 39
12 75 12 63 0 164 30 191 57 8 7 18 11 23 8 5 -4 9 -1 9 6 0 7 11 26 24 44 42
54 48 122 44 490 -3 328 -4 342 -26 390 -13 27 -28 53 -34 57 -9 5 -8 12 4 25
17 19 51 83 45 83 -3 0 -1 19 4 43 8 44 11 224 6 512 -2 155 -4 174 -26 217
-27 56 -85 109 -138 128 -24 8 -107 15 -220 17 -169 5 -182 4 -190 -14z m341
-184 l27 -21 -3 -333 c-3 -312 -4 -334 -22 -354 -15 -16 -21 -18 -28 -9 -6 10
-8 8 -8 -4 0 -15 -9 -18 -55 -17 l-55 2 0 378 0 379 59 0 c44 0 65 -5 85 -21z
m-104 -919 c-13 -8 -12 -10 3 -10 9 0 17 5 17 10 0 16 62 11 82 -7 22 -19 25
-41 3 -23 -9 8 -15 8 -15 2 0 -6 9 -14 20 -17 19 -6 20 -15 20 -348 0 -336 0
-341 -22 -364 -18 -19 -32 -23 -85 -23 l-63 0 0 110 c0 81 3 110 13 111 10 0
10 2 0 6 -7 2 -13 15 -13 28 0 13 6 26 13 29 10 5 10 7 0 12 -10 4 -13 52 -13
191 0 172 1 185 18 179 16 -6 16 -5 0 8 -21 15 -24 46 -5 47 10 0 10 2 0 6 -7
2 -13 18 -13 34 0 25 4 29 28 29 21 0 24 -2 12 -10z"/>
<path d="M2255 2030 c3 -5 8 -10 11 -10 2 0 4 5 4 10 0 6 -5 10 -11 10 -5 0
-7 -4 -4 -10z"/>
<path d="M2240 2006 c0 -2 7 -7 16 -10 8 -3 12 -2 9 4 -6 10 -25 14 -25 6z"/>
<path d="M2256 1627 c3 -10 9 -15 12 -12 3 3 0 11 -7 18 -10 9 -11 8 -5 -6z"/>
<path d="M2206 1547 c3 -10 9 -15 12 -12 3 3 0 11 -7 18 -10 9 -11 8 -5 -6z"/>
<path d="M2230 1149 c0 -5 5 -7 10 -4 6 3 10 8 10 11 0 2 -4 4 -10 4 -5 0 -10
-5 -10 -11z"/>
<path d="M2250 456 c0 -2 7 -7 16 -10 8 -3 12 -2 9 4 -6 10 -25 14 -25 6z"/>
<path d="M132 2272 c-11 -8 -14 -195 -15 -1041 -1 -679 1 -1035 8 -1041 13
-11 68 -13 265 -11 91 1 171 5 179 10 22 14 29 82 11 113 -22 40 -58 50 -165
50 l-95 0 -2 939 -3 938 -22 23 c-18 17 -37 23 -85 25 -35 2 -69 0 -76 -5z"/>
<path d="M1870 1906 c0 -2 7 -9 15 -16 9 -7 15 -8 15 -2 0 5 -7 12 -15 16 -8
3 -15 4 -15 2z"/>
<path d="M2560 1900 c0 -5 5 -10 11 -10 5 0 7 5 4 10 -3 6 -8 10 -11 10 -2 0
-4 -4 -4 -10z"/>
<path d="M1792 1846 c7 -8 15 -12 17 -11 5 6 -10 25 -20 25 -5 0 -4 -6 3 -14z"/>
<path d="M985 1845 c-5 -1 -30 -9 -55 -16 -183 -54 -292 -225 -260 -407 13
-75 45 -148 102 -234 22 -33 38 -61 36 -62 -101 -70 -152 -118 -209 -201 -104
-149 -81 -399 49 -546 23 -26 39 -49 36 -51 -2 -3 0 -16 6 -29 10 -23 10 -23
5 4 -4 21 -2 28 7 24 7 -2 12 -10 10 -16 -1 -7 2 -10 7 -6 6 3 27 -3 48 -14
21 -10 65 -27 98 -36 33 -9 68 -21 79 -26 10 -6 16 -7 13 -2 -7 11 123 10 141
0 6 -5 12 -4 12 1 0 6 23 13 52 17 66 9 157 39 232 76 l59 29 40 -45 41 -45
180 0 180 0 -28 29 c-17 18 -25 34 -21 42 5 7 4 10 -2 6 -15 -9 -67 49 -58 64
6 8 4 10 -5 4 -8 -5 -18 -1 -26 10 -7 9 -26 32 -41 49 -72 82 -70 62 -14 178
51 105 78 207 83 308 l3 55 -128 0 c-71 0 -132 -2 -137 -5 -4 -3 -15 -39 -24
-80 -10 -41 -25 -92 -34 -112 l-17 -37 -65 76 c-83 97 -99 119 -79 108 8 -4
-5 9 -29 29 -69 62 -70 69 -9 107 235 144 324 311 265 499 -37 121 -125 202
-265 244 -45 14 -243 22 -278 11z m201 -251 c73 -35 88 -133 30 -208 -25 -33
-140 -116 -161 -116 -12 0 -57 70 -79 124 -20 48 -21 118 -2 155 29 56 139 79
212 45z m-86 -838 c157 -177 162 -184 140 -196 -76 -41 -217 -52 -286 -24
-140 58 -154 218 -28 334 l45 41 42 -52 c23 -28 62 -75 87 -103z"/>
<path d="M1861 1114 c0 -11 3 -14 6 -6 3 7 2 16 -1 19 -3 4 -6 -2 -5 -13z"/>
<path d="M1730 1041 c0 -6 4 -13 10 -16 6 -3 7 1 4 9 -7 18 -14 21 -14 7z"/>
<path d="M2537 909 c4 -13 8 -18 11 -10 2 7 -1 18 -6 23 -8 8 -9 4 -5 -13z"/>
<path d="M411 847 c2 -1 13 -9 24 -17 19 -14 19 -14 6 3 -7 9 -18 17 -24 17
-6 0 -8 -1 -6 -3z"/>
<path d="M1876 555 c4 -8 11 -15 16 -15 6 0 5 6 -2 15 -7 8 -14 15 -16 15 -2
0 -1 -7 2 -15z"/>
<path d="M1845 460 c3 -5 8 -10 11 -10 2 0 4 5 4 10 0 6 -5 10 -11 10 -5 0 -7
-4 -4 -10z"/>
<path d="M636 322 c-3 -5 4 -18 16 -28 21 -19 21 -19 8 6 -17 33 -17 33 -24
22z"/>
<path d="M2540 312 c0 -12 19 -26 26 -19 2 2 -2 10 -11 17 -9 8 -15 8 -15 2z"/>
<path d="M755 270 c3 -5 8 -10 11 -10 2 0 4 5 4 10 0 6 -5 10 -11 10 -5 0 -7
-4 -4 -10z"/>
<path d="M621 224 c0 -11 3 -14 6 -6 3 7 2 16 -1 19 -3 4 -6 -2 -5 -13z"/>
<path d="M1560 216 c0 -2 7 -7 16 -10 8 -3 12 -2 9 4 -6 10 -25 14 -25 6z"/>
<path d="M1905 190 c3 -5 11 -10 16 -10 6 0 7 5 4 10 -3 6 -11 10 -16 10 -6 0
-7 -4 -4 -10z"/>
<path d="M2305 190 c3 -5 8 -10 11 -10 2 0 4 5 4 10 0 6 -5 10 -11 10 -5 0 -7
-4 -4 -10z"/>
<path d="M2020 186 c0 -2 8 -10 18 -17 15 -13 16 -12 3 4 -13 16 -21 21 -21
13z"/>
<path d="M2210 140 c0 -6 7 -10 15 -10 8 0 15 2 15 4 0 2 -7 6 -15 10 -8 3
-15 1 -15 -4z"/>
<path d="M2155 130 c3 -5 8 -10 11 -10 2 0 4 5 4 10 0 6 -5 10 -11 10 -5 0 -7
-4 -4 -10z"/>
<path d="M1970 126 c0 -2 7 -9 15 -16 9 -7 15 -8 15 -2 0 5 -7 12 -15 16 -8 3
-15 4 -15 2z"/>
<path d="M1880 76 c0 -2 7 -7 16 -10 8 -3 12 -2 9 4 -6 10 -25 14 -25 6z"/>
</g>
</svg>
